<?xml version="1.0" encoding="utf-8"?>
<svg xmlns="http://www.w3.org/2000/svg" height="512pt" version="1.1" viewBox="0 0 512 512" width="512pt">
<path d="M 0.00 0.00 L 512.00 0.00 L 512.00 512.00 L 0.00 512.00 L 0.00 0.00 M 191.94 207.09 C 191.71 221.15 191.82 235.22 191.89 249.28 C 200.71 249.31 209.54 249.38 218.36 249.26 C 218.35 235.72 218.27 222.18 218.40 208.64 C 223.04 205.99 227.11 202.50 231.55 199.55 C 239.96 193.26 248.70 187.42 257.08 181.09 C 270.07 190.00 282.65 199.55 295.46 208.73 C 295.81 222.25 295.37 235.79 295.69 249.31 C 304.32 249.34 312.94 249.20 321.57 249.40 C 322.00 246.97 322.27 244.51 322.20 242.04 C 322.06 230.96 322.26 219.89 322.14 208.82 C 322.22 206.65 319.88 205.67 318.51 204.42 C 298.05 189.54 277.72 174.46 257.16 159.73 C 235.60 175.75 213.62 191.21 191.94 207.09 M 242.66 205.54 C 242.70 209.50 242.69 213.46 242.67 217.42 C 252.32 217.48 261.98 217.45 271.63 217.45 C 271.53 213.48 271.53 209.50 271.61 205.52 C 261.95 205.52 252.30 205.55 242.66 205.54 M 242.71 220.62 C 242.66 224.68 242.67 228.74 242.62 232.80 C 252.29 232.96 261.96 232.76 271.64 232.84 C 271.51 228.75 271.54 224.66 271.60 220.58 C 261.97 220.62 252.34 220.55 242.71 220.62 M 100.19 260.34 C 92.33 263.25 89.57 274.66 95.20 280.80 C 100.68 285.99 108.74 285.98 115.37 288.79 C 118.99 289.99 118.18 295.72 114.67 296.54 C 107.84 298.92 100.64 295.46 95.25 291.34 C 93.61 293.67 91.94 295.99 90.18 298.24 C 98.05 305.15 109.92 307.72 119.74 303.83 C 127.22 300.93 130.69 290.02 125.20 283.85 C 119.77 277.91 110.91 278.68 104.23 275.06 C 101.38 273.56 101.72 269.08 104.64 267.87 C 110.57 265.92 116.91 268.05 121.95 271.31 C 123.43 268.79 124.95 266.29 126.52 263.83 C 119.07 258.48 108.74 256.95 100.19 260.34 M 273.63 259.61 C 273.60 274.69 273.61 289.76 273.53 304.84 C 276.61 304.84 279.69 304.85 282.78 304.84 C 283.13 294.79 282.37 284.70 283.29 274.68 C 287.96 283.48 292.11 292.55 296.83 301.33 C 298.51 300.94 300.94 301.93 302.07 300.25 C 306.78 291.88 310.36 282.86 315.37 274.67 C 315.56 284.73 315.33 294.80 315.44 304.87 C 318.52 304.88 321.60 304.87 324.68 304.79 C 324.73 289.73 324.79 274.67 324.63 259.62 C 320.88 259.66 317.13 259.68 313.39 259.56 C 308.60 268.97 304.19 278.57 299.05 287.80 C 294.69 278.29 289.63 269.12 285.05 259.71 C 281.24 259.65 277.44 259.62 273.63 259.61 M 373.69 262.60 C 373.78 265.74 373.79 268.89 373.75 272.04 C 372.13 272.06 370.51 272.08 368.90 272.10 C 368.89 274.62 368.88 277.13 368.88 279.64 C 370.50 279.63 372.13 279.62 373.75 279.62 C 373.99 285.42 373.43 291.25 373.96 297.04 C 374.26 300.49 376.41 303.99 379.91 304.91 C 383.94 306.41 388.20 305.21 392.12 303.96 C 391.63 301.46 391.08 298.96 390.55 296.47 C 388.23 297.27 384.81 298.47 383.30 295.75 C 382.78 290.42 383.22 285.05 383.09 279.71 C 385.64 279.64 388.19 279.65 390.75 279.69 C 390.77 277.14 390.77 274.60 390.76 272.06 C 388.24 272.06 385.72 272.04 383.20 272.02 C 383.18 268.84 383.15 265.65 383.05 262.47 C 379.93 262.49 376.81 262.51 373.69 262.60 M 138.16 262.51 C 138.06 265.62 138.27 268.76 137.85 271.85 C 136.29 272.10 134.69 272.11 133.12 272.22 C 133.11 274.68 133.10 277.15 133.08 279.61 C 134.75 279.64 136.43 279.68 138.10 279.73 C 138.15 285.16 137.93 290.59 138.13 296.02 C 138.09 299.88 140.45 303.83 144.22 305.06 C 148.38 306.23 152.73 305.32 156.66 303.79 C 156.10 301.46 155.60 299.12 154.96 296.83 C 153.00 297.00 151.05 297.30 149.10 297.54 C 148.69 297.06 147.86 296.09 147.45 295.61 C 147.34 290.29 147.42 284.97 147.42 279.65 C 150.03 279.62 152.65 279.63 155.26 279.66 C 155.29 277.12 155.29 274.59 155.29 272.06 C 152.68 272.05 150.07 272.04 147.45 272.01 C 147.43 268.87 147.44 265.73 147.46 262.60 C 144.36 262.58 141.26 262.56 138.16 262.51 M 174.41 271.65 C 162.93 273.69 157.07 288.71 163.96 298.02 C 169.40 306.32 181.62 307.79 189.75 302.79 C 194.34 299.79 197.58 294.58 197.62 289.02 C 197.98 283.35 195.12 277.71 190.51 274.46 C 185.93 271.12 179.83 270.49 174.41 271.65 M 214.57 277.10 C 214.48 275.38 214.41 273.66 214.35 271.94 C 211.34 271.89 208.34 271.89 205.34 271.95 C 205.35 282.93 205.31 293.91 205.37 304.88 C 208.45 304.89 211.54 304.89 214.62 304.83 C 215.07 298.17 213.72 291.25 215.66 284.78 C 217.13 280.20 222.42 279.59 226.51 279.94 C 226.54 277.00 226.62 274.07 226.68 271.13 C 221.69 270.23 217.06 272.85 214.57 277.10 M 238.76 273.91 C 230.16 279.25 228.39 293.10 235.81 300.14 C 242.83 307.71 256.85 307.60 263.21 299.24 C 261.35 297.78 259.54 296.26 257.79 294.67 C 254.38 297.77 249.15 299.33 244.88 297.07 C 242.51 296.07 241.44 293.62 240.22 291.55 C 248.63 291.19 257.06 291.43 265.47 291.41 C 265.48 286.48 265.06 281.15 261.81 277.18 C 256.47 270.35 245.85 269.32 238.76 273.91 M 334.32 275.03 C 335.20 277.39 336.31 279.66 337.65 281.80 C 341.58 279.88 346.15 277.79 350.53 279.59 C 353.07 280.41 353.55 283.39 354.05 285.64 C 348.41 285.26 342.26 284.22 337.00 286.92 C 331.59 289.66 330.71 297.92 334.84 302.11 C 339.94 307.44 348.86 306.30 354.15 301.81 C 354.17 302.57 354.19 304.09 354.21 304.85 C 357.20 304.90 360.20 304.89 363.20 304.75 C 362.87 297.46 363.47 290.16 362.87 282.89 C 362.62 278.36 359.88 273.83 355.46 272.32 C 348.45 269.82 340.68 271.54 334.32 275.03 M 405.71 272.80 C 395.84 277.50 393.14 292.33 400.72 300.21 C 407.84 307.85 421.23 307.22 428.12 299.55 C 426.44 297.78 424.61 296.15 422.75 294.58 C 419.36 297.66 414.25 299.21 409.94 297.16 C 407.48 296.25 406.37 293.74 405.27 291.58 C 413.64 291.09 422.04 291.50 430.42 291.36 C 430.65 285.99 429.82 280.16 425.88 276.16 C 420.91 270.64 412.25 269.85 405.71 272.80 Z" fill="#faf6f0" opacity="1.00" stroke="#faf6f0" stroke-width="0.25"/>
<path d="M 191.94 207.09 C 213.62 191.21 235.60 175.75 257.16 159.73 C 277.72 174.46 298.05 189.54 318.51 204.42 C 319.88 205.67 322.22 206.65 322.14 208.82 C 322.26 219.89 322.06 230.96 322.20 242.04 C 322.27 244.51 322.00 246.97 321.57 249.40 C 312.94 249.20 304.32 249.34 295.69 249.31 C 295.37 235.79 295.81 222.25 295.46 208.73 C 282.65 199.55 270.07 190.00 257.08 181.09 C 248.70 187.42 239.96 193.26 231.55 199.55 C 227.11 202.50 223.04 205.99 218.40 208.64 C 218.27 222.18 218.35 235.72 218.36 249.26 C 209.54 249.38 200.71 249.31 191.89 249.28 C 191.82 235.22 191.71 221.15 191.94 207.09 Z" fill="#a1a18b" opacity="1.00" stroke="#a1a18b" stroke-width="0.25"/>
<path d="M 242.66 205.54 C 252.30 205.55 261.95 205.52 271.61 205.52 C 271.53 209.50 271.53 213.48 271.63 217.45 C 261.98 217.45 252.32 217.48 242.67 217.42 C 242.69 213.46 242.70 209.50 242.66 205.54 Z" fill="#3d4b4f" opacity="1.00" stroke="#3d4b4f" stroke-width="0.25"/>
<path d="M 242.71 220.62 C 252.34 220.55 261.97 220.62 271.60 220.58 C 271.54 224.66 271.51 228.75 271.64 232.84 C 261.96 232.76 252.29 232.96 242.62 232.80 C 242.67 228.74 242.66 224.68 242.71 220.62 Z" fill="#3d4b4f" opacity="1.00" stroke="#3d4b4f" stroke-width="0.25"/>
<path d="M 100.19 260.34 C 108.74 256.95 119.07 258.48 126.52 263.83 C 124.95 266.29 123.43 268.79 121.95 271.31 C 116.91 268.05 110.57 265.92 104.64 267.87 C 101.72 269.08 101.38 273.56 104.23 275.06 C 110.91 278.68 119.77 277.91 125.20 283.85 C 130.69 290.02 127.22 300.93 119.74 303.83 C 109.92 307.72 98.05 305.15 90.18 298.24 C 91.94 295.99 93.61 293.67 95.25 291.34 C 100.64 295.46 107.84 298.92 114.67 296.54 C 118.18 295.72 118.99 289.99 115.37 288.79 C 108.74 285.98 100.68 285.99 95.20 280.80 C 89.57 274.66 92.33 263.25 100.19 260.34 Z" fill="#3d4b4f" opacity="1.00" stroke="#3d4b4f" stroke-width="0.25"/>
<path d="M 273.63 259.61 C 277.44 259.62 281.24 259.65 285.05 259.71 C 289.63 269.12 294.69 278.29 299.05 287.80 C 304.19 278.57 308.60 268.97 313.39 259.56 C 317.13 259.68 320.88 259.66 324.63 259.62 C 324.79 274.67 324.73 289.73 324.68 304.79 C 321.60 304.87 318.52 304.88 315.44 304.87 C 315.33 294.80 315.56 284.73 315.37 274.67 C 310.36 282.86 306.78 291.88 302.07 300.25 C 300.94 301.93 298.51 300.94 296.83 301.33 C 292.11 292.55 287.96 283.48 283.29 274.68 C 282.37 284.70 283.13 294.79 282.78 304.84 C 279.69 304.85 276.61 304.84 273.53 304.84 C 273.61 289.76 273.60 274.69 273.63 259.61 Z" fill="#3d4b4f" opacity="1.00" stroke="#3d4b4f" stroke-width="0.25"/>
<path d="M 373.69 262.60 C 376.81 262.51 379.93 262.49 383.05 262.47 C 383.15 265.65 383.18 268.84 383.20 272.02 C 385.72 272.04 388.24 272.06 390.76 272.06 C 390.77 274.60 390.77 277.14 390.75 279.69 C 388.19 279.65 385.64 279.64 383.09 279.71 C 383.22 285.05 382.78 290.42 383.30 295.75 C 384.81 298.47 388.23 297.27 390.55 296.47 C 391.08 298.96 391.63 301.46 392.12 303.96 C 388.20 305.21 383.94 306.41 379.91 304.91 C 376.41 303.99 374.26 300.49 373.96 297.04 C 373.43 291.25 373.99 285.42 373.75 279.62 C 372.13 279.62 370.50 279.63 368.88 279.64 C 368.88 277.13 368.89 274.62 368.90 272.10 C 370.51 272.08 372.13 272.06 373.75 272.04 C 373.79 268.89 373.78 265.74 373.69 262.60 Z" fill="#3d4b4f" opacity="1.00" stroke="#3d4b4f" stroke-width="0.25"/>
<path d="M 138.16 262.51 C 141.26 262.56 144.36 262.58 147.46 262.60 C 147.44 265.73 147.43 268.87 147.45 272.01 C 150.07 272.04 152.68 272.05 155.29 272.06 C 155.29 274.59 155.29 277.12 155.26 279.66 C 152.65 279.63 150.03 279.62 147.42 279.65 C 147.42 284.97 147.34 290.29 147.45 295.61 C 147.86 296.09 148.69 297.06 149.10 297.54 C 151.05 297.30 153.00 297.00 154.96 296.83 C 155.60 299.12 156.10 301.46 156.66 303.79 C 152.73 305.32 148.38 306.23 144.22 305.06 C 140.45 303.83 138.09 299.88 138.13 296.02 C 137.93 290.59 138.15 285.16 138.10 279.73 C 136.43 279.68 134.75 279.64 133.08 279.61 C 133.10 277.15 133.11 274.68 133.12 272.22 C 134.69 272.11 136.29 272.10 137.85 271.85 C 138.27 268.76 138.06 265.62 138.16 262.51 Z" fill="#3d4b4f" opacity="1.00" stroke="#3d4b4f" stroke-width="0.25"/>
<path d="M 174.41 271.65 C 179.83 270.49 185.93 271.12 190.51 274.46 C 195.12 277.71 197.98 283.35 197.62 289.02 C 197.58 294.58 194.34 299.79 189.75 302.79 C 181.62 307.79 169.40 306.32 163.96 298.02 C 157.07 288.71 162.93 273.69 174.41 271.65 M 176.38 279.46 C 169.88 281.60 168.30 291.19 173.44 295.55 C 177.93 300.00 186.59 297.32 187.79 291.10 C 190.23 284.40 183.28 276.80 176.38 279.46 Z" fill="#3d4b4f" opacity="1.00" stroke="#3d4b4f" stroke-width="0.25"/>
<path d="M 214.57 277.10 C 217.06 272.85 221.69 270.23 226.68 271.13 C 226.62 274.07 226.54 277.00 226.51 279.94 C 222.42 279.59 217.13 280.20 215.66 284.78 C 213.72 291.25 215.07 298.17 214.62 304.83 C 211.54 304.89 208.45 304.89 205.37 304.88 C 205.31 293.91 205.35 282.93 205.34 271.95 C 208.34 271.89 211.34 271.89 214.35 271.94 C 214.41 273.66 214.48 275.38 214.57 277.10 Z" fill="#3d4b4f" opacity="1.00" stroke="#3d4b4f" stroke-width="0.25"/>
<path d="M 238.76 273.91 C 245.85 269.32 256.47 270.35 261.81 277.18 C 265.06 281.15 265.48 286.48 265.47 291.41 C 257.06 291.43 248.63 291.19 240.22 291.55 C 241.44 293.62 242.51 296.07 244.88 297.07 C 249.15 299.33 254.38 297.77 257.79 294.67 C 259.54 296.26 261.35 297.78 263.21 299.24 C 256.85 307.60 242.83 307.71 235.81 300.14 C 228.39 293.10 230.16 279.25 238.76 273.91 M 242.79 280.23 C 241.95 281.93 241.11 283.62 240.31 285.34 C 245.68 285.51 251.07 285.50 256.45 285.41 C 255.82 283.35 255.41 280.80 253.28 279.73 C 250.10 277.48 245.89 278.30 242.79 280.23 Z" fill="#3d4b4f" opacity="1.00" stroke="#3d4b4f" stroke-width="0.25"/>
<path d="M 334.32 275.03 C 340.68 271.54 348.45 269.82 355.46 272.32 C 359.88 273.83 362.62 278.36 362.87 282.89 C 363.47 290.16 362.87 297.46 363.20 304.75 C 360.20 304.89 357.20 304.90 354.21 304.85 C 354.19 304.09 354.17 302.57 354.15 301.81 C 348.86 306.30 339.94 307.44 334.84 302.11 C 330.71 297.92 331.59 289.66 337.00 286.92 C 342.26 284.22 348.41 285.26 354.05 285.64 C 353.55 283.39 353.07 280.41 350.53 279.59 C 346.15 277.79 341.58 279.88 337.65 281.80 C 336.31 279.66 335.20 277.39 334.32 275.03 M 341.71 292.86 C 341.10 294.58 340.84 297.17 342.65 298.27 C 345.62 299.94 349.69 299.56 352.21 297.22 C 353.84 295.73 353.84 293.34 354.48 291.39 C 350.35 290.87 344.89 289.30 341.71 292.86 Z" fill="#3d4b4f" opacity="1.00" stroke="#3d4b4f" stroke-width="0.25"/>
<path d="M 405.71 272.80 C 412.25 269.85 420.91 270.64 425.88 276.16 C 429.82 280.16 430.65 285.99 430.42 291.36 C 422.04 291.50 413.64 291.09 405.27 291.58 C 406.37 293.74 407.48 296.25 409.94 297.16 C 414.25 299.21 419.36 297.66 422.75 294.58 C 424.61 296.15 426.44 297.78 428.12 299.55 C 421.23 307.22 407.84 307.85 400.72 300.21 C 393.14 292.33 395.84 277.50 405.71 272.80 M 405.39 285.35 C 410.82 285.59 416.25 285.50 421.68 285.37 C 421.03 280.79 416.63 277.37 412.00 278.51 C 408.37 278.91 406.54 282.29 405.39 285.35 Z" fill="#3d4b4f" opacity="1.00" stroke="#3d4b4f" stroke-width="0.25"/>
<path d="M 176.38 279.46 C 183.28 276.80 190.23 284.40 187.79 291.10 C 186.59 297.32 177.93 300.00 173.44 295.55 C 168.30 291.19 169.88 281.60 176.38 279.46 Z" fill="#faf6f0" opacity="1.00" stroke="#faf6f0" stroke-width="0.25"/>
<path d="M 242.79 280.23 C 245.89 278.30 250.10 277.48 253.28 279.73 C 255.41 280.80 255.82 283.35 256.45 285.41 C 251.07 285.50 245.68 285.51 240.31 285.34 C 241.11 283.62 241.95 281.93 242.79 280.23 Z" fill="#faf6f0" opacity="1.00" stroke="#faf6f0" stroke-width="0.25"/>
<path d="M 405.39 285.35 C 406.54 282.29 408.37 278.91 412.00 278.51 C 416.63 277.37 421.03 280.79 421.68 285.37 C 416.25 285.50 410.82 285.59 405.39 285.35 Z" fill="#faf6f0" opacity="1.00" stroke="#faf6f0" stroke-width="0.25"/>
<path d="M 341.71 292.86 C 344.89 289.30 350.35 290.87 354.48 291.39 C 353.84 293.34 353.84 295.73 352.21 297.22 C 349.69 299.56 345.62 299.94 342.65 298.27 C 340.84 297.17 341.10 294.58 341.71 292.86 Z" fill="#faf6f0" opacity="1.00" stroke="#faf6f0" stroke-width="0.25"/>
</svg>